<svg width="18" height="18" viewBox="0 0 18 18" fill="none" xmlns="http://www.w3.org/2000/svg">
<g opacity="0.5" clip-path="url(#clip0_1343_12)">
<path d="M9 18C6.59605 18 4.33589 17.0638 2.63603 15.364C0.936172 13.6641 0 11.4039 0 9C0 6.59605 0.936172 4.33589 2.63603 2.63603C4.33589 0.936172 6.59605 0 9 0C11.4039 0 13.6641 0.936172 15.364 2.63603C17.0638 4.33589 18 6.59605 18 9C18 11.4039 17.0638 13.6641 15.364 15.364C13.6641 17.0638 11.4039 18 9 18ZM9 1.40625C4.81284 1.40625 1.40625 4.81284 1.40625 9C1.40625 13.1872 4.81284 16.5938 9 16.5938C13.1872 16.5938 16.5938 13.1872 16.5938 9C16.5938 4.81284 13.1872 1.40625 9 1.40625ZM12.704 12.704L11.7096 11.7096C10.2155 13.2038 7.7845 13.2038 6.29036 11.7096C4.79622 10.2155 4.79622 7.7845 6.29036 6.29036C7.7845 4.79622 10.2155 4.79622 11.7096 6.29036L12.704 5.29596C10.6615 3.2536 7.33832 3.2536 5.29596 5.29596C3.2536 7.33846 3.2536 10.6617 5.29596 12.704C6.31714 13.7252 7.65857 14.2358 9 14.2358C10.3413 14.2358 11.6829 13.7252 12.704 12.704Z" fill="white"/>
</g>
<defs>
<clipPath id="clip0_1343_12">
<rect width="18" height="18" fill="white"/>
</clipPath>
</defs>
</svg>
